<?xml version="1.0" encoding="UTF-8"?>
<!-- ZerOne — SSR500+ twin-tube coilover — flat 3-bolt top plate, side dial -->
<svg xmlns="http://www.w3.org/2000/svg" viewBox="0 0 400 900" preserveAspectRatio="xMidYMid meet" role="img" aria-labelledby="ssr500p-t">
  <title id="ssr500p-t">ZerOne SSR500+ coilover with side damping dial</title>
  <defs>
    <linearGradient id="ssr500p-spec" x1="0" y1="0" x2="1" y2="0">
      <stop offset="0" stop-color="#FFFFFF" stop-opacity="0"/>
      <stop offset="0.5" stop-color="#FFFFFF" stop-opacity="1"/>
      <stop offset="1" stop-color="#FFFFFF" stop-opacity="0"/>
    </linearGradient>
    <linearGradient id="ssr500p-body" x1="0" y1="0" x2="1" y2="0">
      <stop offset="0" stop-color="#101010"/>
      <stop offset="0.04" stop-color="#2B2B2B"/>
      <stop offset="0.11" stop-color="#616161"/>
      <stop offset="0.18" stop-color="#9E9E9E"/>
      <stop offset="0.235" stop-color="#DEDEDE"/>
      <stop offset="0.29" stop-color="#9B9B9B"/>
      <stop offset="0.42" stop-color="#6C6C6C"/>
      <stop offset="0.6" stop-color="#494949"/>
      <stop offset="0.78" stop-color="#2C2C2C"/>
      <stop offset="0.92" stop-color="#161616"/>
      <stop offset="0.96" stop-color="#6B6B6B"/>
      <stop offset="1" stop-color="#131313"/>
    </linearGradient>
    <linearGradient id="ssr500p-collar" x1="0" y1="0" x2="1" y2="0">
      <stop offset="0" stop-color="#1B1B1B"/>
      <stop offset="0.04" stop-color="#454545"/>
      <stop offset="0.115" stop-color="#8A8A8A"/>
      <stop offset="0.18" stop-color="#C8C8C8"/>
      <stop offset="0.235" stop-color="#F6F6F6"/>
      <stop offset="0.29" stop-color="#BCBCBC"/>
      <stop offset="0.42" stop-color="#8A8A8A"/>
      <stop offset="0.58" stop-color="#606060"/>
      <stop offset="0.76" stop-color="#3E3E3E"/>
      <stop offset="0.91" stop-color="#212121"/>
      <stop offset="0.958" stop-color="#909090"/>
      <stop offset="1" stop-color="#1C1C1C"/>
    </linearGradient>
    <linearGradient id="ssr500p-chrome" x1="0" y1="0" x2="1" y2="0">
      <stop offset="0" stop-color="#242424"/>
      <stop offset="0.05" stop-color="#606060"/>
      <stop offset="0.11" stop-color="#B8B8B8"/>
      <stop offset="0.17" stop-color="#FCFCFC"/>
      <stop offset="0.23" stop-color="#D0D0D0"/>
      <stop offset="0.32" stop-color="#787878"/>
      <stop offset="0.45" stop-color="#454545"/>
      <stop offset="0.55" stop-color="#3E3E3E"/>
      <stop offset="0.66" stop-color="#9A9A9A"/>
      <stop offset="0.76" stop-color="#B4B4B4"/>
      <stop offset="0.86" stop-color="#4E4E4E"/>
      <stop offset="0.955" stop-color="#A6A6A6"/>
      <stop offset="1" stop-color="#222222"/>
    </linearGradient>
    <linearGradient id="ssr500p-face" x1="0" y1="0" x2="1" y2="0">
      <stop offset="0" stop-color="#3A3A3A"/>
      <stop offset="0.07" stop-color="#787878"/>
      <stop offset="0.18" stop-color="#B4B4B4"/>
      <stop offset="0.25" stop-color="#EAEAEA"/>
      <stop offset="0.33" stop-color="#BDBDBD"/>
      <stop offset="0.48" stop-color="#969696"/>
      <stop offset="0.66" stop-color="#6E6E6E"/>
      <stop offset="0.86" stop-color="#4A4A4A"/>
      <stop offset="1" stop-color="#2E2E2E"/>
    </linearGradient>
    <linearGradient id="ssr500p-foot" x1="0" y1="0" x2="1" y2="0">
      <stop offset="0" stop-color="#070707"/>
      <stop offset="0.04" stop-color="#131313"/>
      <stop offset="0.11" stop-color="#2B2B2B"/>
      <stop offset="0.18" stop-color="#474747"/>
      <stop offset="0.235" stop-color="#636363"/>
      <stop offset="0.29" stop-color="#454545"/>
      <stop offset="0.42" stop-color="#303030"/>
      <stop offset="0.6" stop-color="#202020"/>
      <stop offset="0.78" stop-color="#131313"/>
      <stop offset="0.92" stop-color="#090909"/>
      <stop offset="0.96" stop-color="#303030"/>
      <stop offset="1" stop-color="#080808"/>
    </linearGradient>
    <linearGradient id="ssr500p-aod" x1="0" y1="0" x2="0" y2="1">
      <stop offset="0" stop-color="#000000" stop-opacity="0.85"/>
      <stop offset="1" stop-color="#000000" stop-opacity="0"/>
    </linearGradient>
    <linearGradient id="ssr500p-aou" x1="0" y1="0" x2="0" y2="1">
      <stop offset="0" stop-color="#000000" stop-opacity="0"/>
      <stop offset="1" stop-color="#000000" stop-opacity="0.85"/>
    </linearGradient>
    <linearGradient id="ssr500p-spring" gradientUnits="userSpaceOnUse" x1="108.8" y1="0" x2="291.2" y2="0">
      <stop offset="0" stop-color="#242424"/>
      <stop offset="0.05" stop-color="#606060"/>
      <stop offset="0.11" stop-color="#B8B8B8"/>
      <stop offset="0.17" stop-color="#FCFCFC"/>
      <stop offset="0.23" stop-color="#D0D0D0"/>
      <stop offset="0.32" stop-color="#787878"/>
      <stop offset="0.45" stop-color="#454545"/>
      <stop offset="0.55" stop-color="#3E3E3E"/>
      <stop offset="0.66" stop-color="#9A9A9A"/>
      <stop offset="0.76" stop-color="#B4B4B4"/>
      <stop offset="0.86" stop-color="#4E4E4E"/>
      <stop offset="0.955" stop-color="#A6A6A6"/>
      <stop offset="1" stop-color="#222222"/>
    </linearGradient>
    <linearGradient id="ssr500p-spring-bk" gradientUnits="userSpaceOnUse" x1="108.8" y1="0" x2="291.2" y2="0">
      <stop offset="0" stop-color="#0C0C0C"/>
      <stop offset="0.05" stop-color="#202020"/>
      <stop offset="0.11" stop-color="#3E3E3E"/>
      <stop offset="0.17" stop-color="#555555"/>
      <stop offset="0.23" stop-color="#464646"/>
      <stop offset="0.32" stop-color="#282828"/>
      <stop offset="0.45" stop-color="#171717"/>
      <stop offset="0.55" stop-color="#151515"/>
      <stop offset="0.66" stop-color="#343434"/>
      <stop offset="0.76" stop-color="#3D3D3D"/>
      <stop offset="0.86" stop-color="#1A1A1A"/>
      <stop offset="0.955" stop-color="#383838"/>
      <stop offset="1" stop-color="#0B0B0B"/>
    </linearGradient>
    <linearGradient id="ssr500p-bodyv" x1="0" y1="0" x2="0" y2="1">
      <stop offset="0" stop-color="#101010"/>
      <stop offset="0.04" stop-color="#2B2B2B"/>
      <stop offset="0.11" stop-color="#616161"/>
      <stop offset="0.18" stop-color="#9E9E9E"/>
      <stop offset="0.235" stop-color="#DEDEDE"/>
      <stop offset="0.29" stop-color="#9B9B9B"/>
      <stop offset="0.42" stop-color="#6C6C6C"/>
      <stop offset="0.6" stop-color="#494949"/>
      <stop offset="0.78" stop-color="#2C2C2C"/>
      <stop offset="0.92" stop-color="#161616"/>
      <stop offset="0.96" stop-color="#6B6B6B"/>
      <stop offset="1" stop-color="#131313"/>
    </linearGradient>
    <linearGradient id="ssr500p-collarv" x1="0" y1="0" x2="0" y2="1">
      <stop offset="0" stop-color="#1B1B1B"/>
      <stop offset="0.04" stop-color="#454545"/>
      <stop offset="0.115" stop-color="#8A8A8A"/>
      <stop offset="0.18" stop-color="#C8C8C8"/>
      <stop offset="0.235" stop-color="#F6F6F6"/>
      <stop offset="0.29" stop-color="#BCBCBC"/>
      <stop offset="0.42" stop-color="#8A8A8A"/>
      <stop offset="0.58" stop-color="#606060"/>
      <stop offset="0.76" stop-color="#3E3E3E"/>
      <stop offset="0.91" stop-color="#212121"/>
      <stop offset="0.958" stop-color="#909090"/>
      <stop offset="1" stop-color="#1C1C1C"/>
    </linearGradient>
    <clipPath id="ssr500p-thra"><rect x="148" y="602" width="104" height="134"/></clipPath>
  </defs>
  <g id="ssr500p-back">
    <g fill="none">
      <path d="M120.7 215.5L119.6 218L127.2 220.5L142.7 223L164.4 225.5L190 228L216.6 230.5L241.5 233L261.8 235.5L275.5 238L280.9 240.5L277.6 243" stroke="url(#ssr500p-spring-bk)" stroke-width="16.3" stroke-linecap="round" stroke-linejoin="round"/>
      <path d="M118 220L126 225L164 231L216 236L261 241L279 245L281 247" stroke="#FFFFFF" stroke-opacity="0.24" stroke-width="4.2" stroke-linecap="round" stroke-linejoin="round"/>
      <path d="M120.7 263L119.6 265.5L127.2 268L142.7 270.5L164.4 273L190 275.5L216.6 278L241.5 280.5L261.8 283L275.5 285.5L280.9 288L277.6 290.5" stroke="url(#ssr500p-spring-bk)" stroke-width="16.3" stroke-linecap="round" stroke-linejoin="round"/>
      <path d="M118 267L126 273L164 278L216 283L261 288L279 293L281 295" stroke="#FFFFFF" stroke-opacity="0.24" stroke-width="4.2" stroke-linecap="round" stroke-linejoin="round"/>
      <path d="M120.7 310.5L119.6 313L127.2 315.5L142.7 318L164.4 320.5L190 323L216.6 325.5L241.5 328L261.8 330.5L275.5 333L280.9 335.5L277.6 338" stroke="url(#ssr500p-spring-bk)" stroke-width="16.3" stroke-linecap="round" stroke-linejoin="round"/>
      <path d="M118 315L126 320L164 326L216 331L261 336L279 340L281 342" stroke="#FFFFFF" stroke-opacity="0.24" stroke-width="4.2" stroke-linecap="round" stroke-linejoin="round"/>
      <path d="M120.7 358L119.6 360.5L127.2 363L142.7 365.5L164.4 368L190 370.5L216.6 373L241.5 375.5L261.8 378L275.5 380.5L280.9 383L277.6 385.5" stroke="url(#ssr500p-spring-bk)" stroke-width="16.3" stroke-linecap="round" stroke-linejoin="round"/>
      <path d="M118 362L126 368L164 373L216 378L261 383L279 388L281 390" stroke="#FFFFFF" stroke-opacity="0.24" stroke-width="4.2" stroke-linecap="round" stroke-linejoin="round"/>
      <path d="M120.7 405.5L119.6 408L127.2 410.5L142.7 413L164.4 415.5L190 418L216.6 420.5L241.5 423L261.8 425.5L275.5 428L280.9 430.5L277.6 433" stroke="url(#ssr500p-spring-bk)" stroke-width="16.3" stroke-linecap="round" stroke-linejoin="round"/>
      <path d="M118 410L126 415L164 421L216 426L261 431L279 435L281 437" stroke="#FFFFFF" stroke-opacity="0.24" stroke-width="4.2" stroke-linecap="round" stroke-linejoin="round"/>
      <path d="M120.7 453L119.6 455.5L127.2 458L142.7 460.5L164.4 463L190 465.5L216.6 468L241.5 470.5L261.8 473L275.5 475.5L280.9 478L277.6 480.5" stroke="url(#ssr500p-spring-bk)" stroke-width="16.3" stroke-linecap="round" stroke-linejoin="round"/>
      <path d="M118 457L126 463L164 468L216 473L261 478L279 483L281 485" stroke="#FFFFFF" stroke-opacity="0.24" stroke-width="4.2" stroke-linecap="round" stroke-linejoin="round"/>
      <path d="M120.7 500.5L119.6 503L127.2 505.5L142.7 508L164.4 510.5L190 513L216.6 515.5L241.5 518L261.8 520.5L275.5 523L280.9 525.5L277.6 528" stroke="url(#ssr500p-spring-bk)" stroke-width="16.3" stroke-linecap="round" stroke-linejoin="round"/>
      <path d="M118 505L126 510L164 516L216 521L261 526L279 530L281 532" stroke="#FFFFFF" stroke-opacity="0.24" stroke-width="4.2" stroke-linecap="round" stroke-linejoin="round"/>
      <path d="M120.7 548L119.6 550.5L127.2 553L142.7 555.5L164.4 558L190 560.5L216.6 563L241.5 565.5L261.8 568L275.5 570.5L280.9 573L277.6 575.5" stroke="url(#ssr500p-spring-bk)" stroke-width="16.3" stroke-linecap="round" stroke-linejoin="round"/>
      <path d="M118 552L126 558L164 563L216 568L261 573L279 578L281 580" stroke="#FFFFFF" stroke-opacity="0.24" stroke-width="4.2" stroke-linecap="round" stroke-linejoin="round"/>
    </g>
  </g>
  <g id="ssr500p-core">
    <path d="M172 722H228L227.4 788H172.6Z" fill="url(#ssr500p-collar)"/>
    <circle cx="200" cy="788" r="38" fill="url(#ssr500p-collar)"/>
    <rect x="162" y="750" width="76" height="76" fill="url(#ssr500p-spec)" opacity="0.0"/>
    <circle cx="200" cy="788" r="23.6" fill="url(#ssr500p-face)" opacity="0.55"/>
    <circle cx="200" cy="788" r="16" fill="#0C0C0C"/>
    <circle cx="200" cy="788" r="16" fill="none" stroke="#000000" stroke-opacity="0.85" stroke-width="3"/>
    <path d="M187.8 779.6A16 16 0 0 1 212.2 779.6" fill="none" stroke="#FFFFFF" stroke-opacity="0.32" stroke-width="2"/>
    <path d="M162 788A38 38 0 0 1 181 754.9" fill="none" stroke="#FFFFFF" stroke-opacity="0.34" stroke-width="2.4"/>
    <path d="M226.6 814.6A38 38 0 0 0 238 788" fill="none" stroke="#FFFFFF" stroke-opacity="0.2" stroke-width="2"/>
    <rect x="145" y="330" width="110" height="406" fill="url(#ssr500p-body)"/>
    <rect x="164.2" y="330" width="9.4" height="406" fill="url(#ssr500p-spec)" opacity="0.55"/>
    <rect x="253" y="330" width="2" height="406" fill="#FFFFFF" opacity="0.22"/>
    <rect x="145" y="330" width="110" height="26" fill="url(#ssr500p-aod)" opacity="0.42"/>
    <rect x="145" y="706" width="110" height="30" fill="url(#ssr500p-aou)" opacity="0.45"/>
    <path d="M145 364H255" stroke="#000000" stroke-opacity="0.5" stroke-width="2"/>
    <path d="M145 366.2H255" stroke="#FFFFFF" stroke-opacity="0.16" stroke-width="1.2"/>
    <path d="M145 390H255" stroke="#000000" stroke-opacity="0.5" stroke-width="2"/>
    <path d="M145 392.2H255" stroke="#FFFFFF" stroke-opacity="0.16" stroke-width="1.2"/>
    <g clip-path="url(#ssr500p-thra)" fill="none">
      <path d="M148 586L252 593M148 595L252 602M148 604L252 611M148 613L252 620M148 622L252 629M148 631L252 638M148 640L252 647M148 649L252 656M148 658L252 665M148 667L252 674M148 676L252 683M148 685L252 692M148 694L252 701M148 703L252 710M148 712L252 719M148 721L252 728M148 730L252 737M148 739L252 746" stroke="#000000" stroke-opacity="0.48" stroke-width="2.1"/>
      <path d="M148 588.4L252 595.4M148 597.4L252 604.4M148 606.4L252 613.4M148 615.4L252 622.4M148 624.4L252 631.4M148 633.4L252 640.4M148 642.4L252 649.4M148 651.4L252 658.4M148 660.4L252 667.4M148 669.4L252 676.4M148 678.4L252 685.4M148 687.4L252 694.4M148 696.4L252 703.4M148 705.4L252 712.4M148 714.4L252 721.4M148 723.4L252 730.4M148 732.4L252 739.4M148 741.4L252 748.4" stroke="#FFFFFF" stroke-opacity="0.18" stroke-width="1.3"/>
    </g>
    <ellipse cx="200" cy="736" rx="55" ry="8.2" fill="url(#ssr500p-foot)"/>
    <rect x="238" y="676.2" width="20" height="47.6" fill="url(#ssr500p-collarv)"/>
    <ellipse cx="260" cy="700" rx="17" ry="29" fill="url(#ssr500p-collar)"/>
    <ellipse cx="262" cy="700" rx="14.6" ry="24.9" fill="url(#ssr500p-face)"/>
    <path d="M276.3 700L272.2 700M275.6 707.5L271.7 705.4M273.6 714.3L270.3 710.2M270.4 719.7L268 714.1M266.4 723.2L265.2 716.5M262 724.4L262 717.4M257.6 723.2L258.8 716.5M253.6 719.7L256 714.1M250.4 714.3L253.7 710.2M248.4 707.5L252.3 705.4M247.7 700L251.8 700M248.4 692.5L252.3 694.6M250.4 685.7L253.7 689.8M253.6 680.3L256 685.9M257.6 676.8L258.8 683.5M262 675.6L262 682.6M266.4 676.8L265.2 683.5M270.4 680.3L268 685.9M273.6 685.7L270.3 689.8M275.6 692.5L271.7 694.6" stroke="#000000" stroke-opacity="0.45" stroke-width="1.4" fill="none"/>
    <ellipse cx="263" cy="700" rx="5.8" ry="9.9" fill="#1B1B1B"/>
    <path d="M263 685.5V677.4" stroke="#F0F0F0" stroke-width="3" stroke-linecap="round"/>
    <rect x="139" y="296" width="122" height="38" fill="url(#ssr500p-collar)"/>
    <rect x="160.3" y="296" width="9.2" height="38" fill="url(#ssr500p-spec)" opacity="0.55"/>
    <rect x="258.8" y="296" width="2.2" height="38" fill="#FFFFFF" opacity="0.22"/>
    <ellipse cx="200" cy="334" rx="61" ry="9.8" fill="url(#ssr500p-foot)"/>
    <path d="M144.5 302V328M249 302V328" stroke="#000000" stroke-opacity="0.30" stroke-width="1.5"/>
    <path d="M148.8 302V328M253.3 302V328" stroke="#FFFFFF" stroke-opacity="0.13" stroke-width="1.1"/>
    <path d="M154 302V328M163.5 302V328M173 302V328M182.5 302V328M192 302V328M201.5 302V328M211 302V328M220.5 302V328M230 302V328M239.5 302V328" stroke="#000000" stroke-opacity="0.53" stroke-width="1.5"/>
    <path d="M158.3 302V328M167.8 302V328M177.3 302V328M186.8 302V328M196.3 302V328M205.8 302V328M215.3 302V328M224.8 302V328M234.3 302V328M243.8 302V328" stroke="#FFFFFF" stroke-opacity="0.24" stroke-width="1.1"/>
    <path d="M139 300H261" stroke="#000000" stroke-opacity="0.55" stroke-width="2"/>
    <path d="M139 302.2H261" stroke="#FFFFFF" stroke-opacity="0.16" stroke-width="1.2"/>
    <rect x="186" y="126" width="28" height="208" fill="url(#ssr500p-chrome)"/>
    <rect x="190.5" y="126" width="3.9" height="208" fill="url(#ssr500p-spec)" opacity="0.75"/>
    <rect x="212.6" y="126" width="1.4" height="208" fill="#FFFFFF" opacity="0.22"/>
    <rect x="104" y="96" width="192" height="30" fill="url(#ssr500p-collar)"/>
    <rect x="137.6" y="96" width="13.4" height="30" fill="url(#ssr500p-spec)" opacity="0.55"/>
    <rect x="292.5" y="96" width="3.5" height="30" fill="#FFFFFF" opacity="0.22"/>
    <path d="M104 96L120 85H280L296 96Z" fill="url(#ssr500p-face)"/>
    <path d="M120 85H280" stroke="#FFFFFF" stroke-opacity="0.34" stroke-width="1.3" fill="none"/>
    <path d="M110 117H290" stroke="#000000" stroke-opacity="0.45" stroke-width="2"/>
    <path d="M110 119.2H290" stroke="#FFFFFF" stroke-opacity="0.16" stroke-width="1.2"/>
    <path d="M121.6 78L136.6 70L151.6 78V90L136.6 98L121.6 90Z" fill="url(#ssr500p-collar)"/>
    <path d="M121.6 78L136.6 70L151.6 78L136.6 86Z" fill="url(#ssr500p-face)"/>
    <path d="M121.6 78L136.6 70L151.6 78" stroke="#FFFFFF" stroke-opacity="0.3" stroke-width="1.2" fill="none"/>
    <path d="M185 78L200 70L215 78V90L200 98L185 90Z" fill="url(#ssr500p-collar)"/>
    <path d="M185 78L200 70L215 78L200 86Z" fill="url(#ssr500p-face)"/>
    <path d="M185 78L200 70L215 78" stroke="#FFFFFF" stroke-opacity="0.3" stroke-width="1.2" fill="none"/>
    <path d="M248.4 78L263.4 70L278.4 78V90L263.4 98L248.4 90Z" fill="url(#ssr500p-collar)"/>
    <path d="M248.4 78L263.4 70L278.4 78L263.4 86Z" fill="url(#ssr500p-face)"/>
    <path d="M248.4 78L263.4 70L278.4 78" stroke="#FFFFFF" stroke-opacity="0.3" stroke-width="1.2" fill="none"/>
    <rect x="114" y="176" width="172" height="22" fill="url(#ssr500p-collar)"/>
    <rect x="144.1" y="176" width="12" height="22" fill="url(#ssr500p-spec)" opacity="0.55"/>
    <rect x="282.9" y="176" width="3.1" height="22" fill="#FFFFFF" opacity="0.22"/>
    <ellipse cx="200" cy="198" rx="86" ry="12" fill="url(#ssr500p-foot)"/>
    <ellipse cx="200" cy="176" rx="86" ry="12" fill="url(#ssr500p-face)"/>
    <ellipse cx="200" cy="176" rx="86" ry="12" fill="none" stroke="#FFFFFF" stroke-opacity="0.30" stroke-width="1.2"/>
    <rect x="114" y="576" width="172" height="26" fill="url(#ssr500p-collar)"/>
    <rect x="144.1" y="576" width="12" height="26" fill="url(#ssr500p-spec)" opacity="0.55"/>
    <rect x="282.9" y="576" width="3.1" height="26" fill="#FFFFFF" opacity="0.22"/>
    <ellipse cx="200" cy="602" rx="86" ry="12" fill="url(#ssr500p-foot)"/>
    <ellipse cx="200" cy="576" rx="86" ry="12" fill="url(#ssr500p-face)"/>
    <ellipse cx="200" cy="576" rx="86" ry="12" fill="none" stroke="#FFFFFF" stroke-opacity="0.30" stroke-width="1.2"/>
    <rect x="134" y="608" width="132" height="30" fill="url(#ssr500p-collar)"/>
    <rect x="157.1" y="608" width="9.9" height="30" fill="url(#ssr500p-spec)" opacity="0.55"/>
    <rect x="263.6" y="608" width="2.4" height="30" fill="#FFFFFF" opacity="0.22"/>
    <ellipse cx="200" cy="638" rx="66" ry="9.2" fill="url(#ssr500p-foot)"/>
    <path d="M139.9 612V634M145.9 612V634M253.9 612V634M259.9 612V634" stroke="#000000" stroke-opacity="0.30" stroke-width="1.5"/>
    <path d="M142.6 612V634M148.6 612V634M256.6 612V634M262.6 612V634" stroke="#FFFFFF" stroke-opacity="0.13" stroke-width="1.1"/>
    <path d="M151.9 612V634M157.9 612V634M163.9 612V634M169.9 612V634M175.9 612V634M181.9 612V634M187.9 612V634M193.9 612V634M199.9 612V634M205.9 612V634M211.9 612V634M217.9 612V634M223.9 612V634M229.9 612V634M235.9 612V634M241.9 612V634M247.9 612V634" stroke="#000000" stroke-opacity="0.53" stroke-width="1.5"/>
    <path d="M154.6 612V634M160.6 612V634M166.6 612V634M172.6 612V634M178.6 612V634M184.6 612V634M190.6 612V634M196.6 612V634M202.6 612V634M208.6 612V634M214.6 612V634M220.6 612V634M226.6 612V634M232.6 612V634M238.6 612V634M244.6 612V634M250.6 612V634" stroke="#FFFFFF" stroke-opacity="0.24" stroke-width="1.1"/>
    <rect x="134" y="641" width="132" height="29" fill="url(#ssr500p-collar)"/>
    <rect x="157.1" y="641" width="9.9" height="29" fill="url(#ssr500p-spec)" opacity="0.55"/>
    <rect x="263.6" y="641" width="2.4" height="29" fill="#FFFFFF" opacity="0.22"/>
    <ellipse cx="200" cy="670" rx="66" ry="9.2" fill="url(#ssr500p-foot)"/>
    <path d="M139.9 645V666M145.9 645V666M253.9 645V666M259.9 645V666" stroke="#000000" stroke-opacity="0.30" stroke-width="1.5"/>
    <path d="M142.6 645V666M148.6 645V666M256.6 645V666M262.6 645V666" stroke="#FFFFFF" stroke-opacity="0.13" stroke-width="1.1"/>
    <path d="M151.9 645V666M157.9 645V666M163.9 645V666M169.9 645V666M175.9 645V666M181.9 645V666M187.9 645V666M193.9 645V666M199.9 645V666M205.9 645V666M211.9 645V666M217.9 645V666M223.9 645V666M229.9 645V666M235.9 645V666M241.9 645V666M247.9 645V666" stroke="#000000" stroke-opacity="0.53" stroke-width="1.5"/>
    <path d="M154.6 645V666M160.6 645V666M166.6 645V666M172.6 645V666M178.6 645V666M184.6 645V666M190.6 645V666M196.6 645V666M202.6 645V666M208.6 645V666M214.6 645V666M220.6 645V666M226.6 645V666M232.6 645V666M238.6 645V666M244.6 645V666M250.6 645V666" stroke="#FFFFFF" stroke-opacity="0.24" stroke-width="1.1"/>
  </g>
  <g id="ssr500p-front">
    <g fill="none">
      <path d="M265.9 198L247.1 200.5L223.1 203L196.7 205.5L170.6 208L147.7 210.5L130.4 213L120.7 215.5L119.6 218" stroke="url(#ssr500p-spring)" stroke-width="17" stroke-linecap="round" stroke-linejoin="round"/>
      <path d="M265 193L223 198L170 203L129 208L117 213" stroke="#000000" stroke-opacity="0.46" stroke-width="5.1" stroke-linecap="round" stroke-linejoin="round"/>
      <path d="M267 203L224 208L171 213L131 218L122 223" stroke="#FFFFFF" stroke-opacity="0.82" stroke-width="4.4" stroke-linecap="round" stroke-linejoin="round"/>
      <path d="M280.9 240.5L277.6 243L265.9 245.5L247.1 248L223.1 250.5L196.7 253L170.6 255.5L147.7 258L130.4 260.5L120.7 263L119.6 265.5" stroke="url(#ssr500p-spring)" stroke-width="17" stroke-linecap="round" stroke-linejoin="round"/>
      <path d="M279 236L265 240L223 245L170 250L129 255L117 261" stroke="#000000" stroke-opacity="0.46" stroke-width="5.1" stroke-linecap="round" stroke-linejoin="round"/>
      <path d="M283 245L267 251L224 256L171 261L131 266L122 270" stroke="#FFFFFF" stroke-opacity="0.82" stroke-width="4.4" stroke-linecap="round" stroke-linejoin="round"/>
      <path d="M280.9 288L277.6 290.5L265.9 293L247.1 295.5L223.1 298L196.7 300.5L170.6 303L147.7 305.5L130.4 308L120.7 310.5L119.6 313" stroke="url(#ssr500p-spring)" stroke-width="17" stroke-linecap="round" stroke-linejoin="round"/>
      <path d="M279 283L265 288L223 293L170 298L129 303L117 308" stroke="#000000" stroke-opacity="0.46" stroke-width="5.1" stroke-linecap="round" stroke-linejoin="round"/>
      <path d="M283 293L267 298L224 303L171 308L131 313L122 318" stroke="#FFFFFF" stroke-opacity="0.82" stroke-width="4.4" stroke-linecap="round" stroke-linejoin="round"/>
      <path d="M280.9 335.5L277.6 338L265.9 340.5L247.1 343L223.1 345.5L196.7 348L170.6 350.5L147.7 353L130.4 355.5L120.7 358L119.6 360.5" stroke="url(#ssr500p-spring)" stroke-width="17" stroke-linecap="round" stroke-linejoin="round"/>
      <path d="M279 331L265 335L223 340L170 345L129 350L117 356" stroke="#000000" stroke-opacity="0.46" stroke-width="5.1" stroke-linecap="round" stroke-linejoin="round"/>
      <path d="M283 340L267 346L224 351L171 356L131 361L122 365" stroke="#FFFFFF" stroke-opacity="0.82" stroke-width="4.4" stroke-linecap="round" stroke-linejoin="round"/>
      <path d="M280.9 383L277.6 385.5L265.9 388L247.1 390.5L223.1 393L196.7 395.5L170.6 398L147.7 400.5L130.4 403L120.7 405.5L119.6 408" stroke="url(#ssr500p-spring)" stroke-width="17" stroke-linecap="round" stroke-linejoin="round"/>
      <path d="M279 378L265 383L223 388L170 393L129 398L117 403" stroke="#000000" stroke-opacity="0.46" stroke-width="5.1" stroke-linecap="round" stroke-linejoin="round"/>
      <path d="M283 388L267 393L224 398L171 403L131 408L122 413" stroke="#FFFFFF" stroke-opacity="0.82" stroke-width="4.4" stroke-linecap="round" stroke-linejoin="round"/>
      <path d="M280.9 430.5L277.6 433L265.9 435.5L247.1 438L223.1 440.5L196.7 443L170.6 445.5L147.7 448L130.4 450.5L120.7 453L119.6 455.5" stroke="url(#ssr500p-spring)" stroke-width="17" stroke-linecap="round" stroke-linejoin="round"/>
      <path d="M279 426L265 430L223 435L170 440L129 445L117 451" stroke="#000000" stroke-opacity="0.46" stroke-width="5.1" stroke-linecap="round" stroke-linejoin="round"/>
      <path d="M283 435L267 441L224 446L171 451L131 456L122 460" stroke="#FFFFFF" stroke-opacity="0.82" stroke-width="4.4" stroke-linecap="round" stroke-linejoin="round"/>
      <path d="M280.9 478L277.6 480.5L265.9 483L247.1 485.5L223.1 488L196.7 490.5L170.6 493L147.7 495.5L130.4 498L120.7 500.5L119.6 503" stroke="url(#ssr500p-spring)" stroke-width="17" stroke-linecap="round" stroke-linejoin="round"/>
      <path d="M279 473L265 478L223 483L170 488L129 493L117 498" stroke="#000000" stroke-opacity="0.46" stroke-width="5.1" stroke-linecap="round" stroke-linejoin="round"/>
      <path d="M283 483L267 488L224 493L171 498L131 503L122 508" stroke="#FFFFFF" stroke-opacity="0.82" stroke-width="4.4" stroke-linecap="round" stroke-linejoin="round"/>
      <path d="M280.9 525.5L277.6 528L265.9 530.5L247.1 533L223.1 535.5L196.7 538L170.6 540.5L147.7 543L130.4 545.5L120.7 548L119.6 550.5" stroke="url(#ssr500p-spring)" stroke-width="17" stroke-linecap="round" stroke-linejoin="round"/>
      <path d="M279 521L265 525L223 530L170 535L129 540L117 546" stroke="#000000" stroke-opacity="0.46" stroke-width="5.1" stroke-linecap="round" stroke-linejoin="round"/>
      <path d="M283 530L267 536L224 541L171 546L131 551L122 555" stroke="#FFFFFF" stroke-opacity="0.82" stroke-width="4.4" stroke-linecap="round" stroke-linejoin="round"/>
      <path d="M280.9 573L277.6 575.5L265.9 578" stroke="url(#ssr500p-spring)" stroke-width="17" stroke-linecap="round" stroke-linejoin="round"/>
      <path d="M278 569L276 571L265 573" stroke="#000000" stroke-opacity="0.46" stroke-width="5.1" stroke-linecap="round" stroke-linejoin="round"/>
      <path d="M284 577L279 580L267 583" stroke="#FFFFFF" stroke-opacity="0.82" stroke-width="4.4" stroke-linecap="round" stroke-linejoin="round"/>
    </g>
  </g>
</svg>
