<?xml version="1.0" encoding="UTF-8"?>
<!-- ZerOne — Pillow-ball upper mount — machined plate, spherical bearing -->
<svg xmlns="http://www.w3.org/2000/svg" viewBox="0 0 400 400" preserveAspectRatio="xMidYMid meet" role="img" aria-labelledby="pbm-t">
  <title id="pbm-t">ZerOne pillow-ball upper mount</title>
  <defs>
    <linearGradient id="pbm-spec" x1="0" y1="0" x2="1" y2="0">
      <stop offset="0" stop-color="#FFFFFF" stop-opacity="0"/>
      <stop offset="0.5" stop-color="#FFFFFF" stop-opacity="1"/>
      <stop offset="1" stop-color="#FFFFFF" stop-opacity="0"/>
    </linearGradient>
    <linearGradient id="pbm-collar" x1="0" y1="0" x2="1" y2="0">
      <stop offset="0" stop-color="#1B1B1B"/>
      <stop offset="0.04" stop-color="#454545"/>
      <stop offset="0.115" stop-color="#8A8A8A"/>
      <stop offset="0.18" stop-color="#C8C8C8"/>
      <stop offset="0.235" stop-color="#F6F6F6"/>
      <stop offset="0.29" stop-color="#BCBCBC"/>
      <stop offset="0.42" stop-color="#8A8A8A"/>
      <stop offset="0.58" stop-color="#606060"/>
      <stop offset="0.76" stop-color="#3E3E3E"/>
      <stop offset="0.91" stop-color="#212121"/>
      <stop offset="0.958" stop-color="#909090"/>
      <stop offset="1" stop-color="#1C1C1C"/>
    </linearGradient>
    <linearGradient id="pbm-chrome" x1="0" y1="0" x2="1" y2="0">
      <stop offset="0" stop-color="#242424"/>
      <stop offset="0.05" stop-color="#606060"/>
      <stop offset="0.11" stop-color="#B8B8B8"/>
      <stop offset="0.17" stop-color="#FCFCFC"/>
      <stop offset="0.23" stop-color="#D0D0D0"/>
      <stop offset="0.32" stop-color="#787878"/>
      <stop offset="0.45" stop-color="#454545"/>
      <stop offset="0.55" stop-color="#3E3E3E"/>
      <stop offset="0.66" stop-color="#9A9A9A"/>
      <stop offset="0.76" stop-color="#B4B4B4"/>
      <stop offset="0.86" stop-color="#4E4E4E"/>
      <stop offset="0.955" stop-color="#A6A6A6"/>
      <stop offset="1" stop-color="#222222"/>
    </linearGradient>
    <linearGradient id="pbm-wall" x1="0" y1="0" x2="1" y2="0">
      <stop offset="0" stop-color="#121212"/>
      <stop offset="0.04" stop-color="#303030"/>
      <stop offset="0.115" stop-color="#606060"/>
      <stop offset="0.18" stop-color="#8C8C8C"/>
      <stop offset="0.235" stop-color="#ACACAC"/>
      <stop offset="0.29" stop-color="#838383"/>
      <stop offset="0.42" stop-color="#606060"/>
      <stop offset="0.58" stop-color="#434343"/>
      <stop offset="0.76" stop-color="#2B2B2B"/>
      <stop offset="0.91" stop-color="#171717"/>
      <stop offset="0.958" stop-color="#646464"/>
      <stop offset="1" stop-color="#131313"/>
    </linearGradient>
    <linearGradient id="pbm-face" x1="0" y1="0" x2="1" y2="0">
      <stop offset="0" stop-color="#3A3A3A"/>
      <stop offset="0.07" stop-color="#787878"/>
      <stop offset="0.18" stop-color="#B4B4B4"/>
      <stop offset="0.25" stop-color="#EAEAEA"/>
      <stop offset="0.33" stop-color="#BDBDBD"/>
      <stop offset="0.48" stop-color="#969696"/>
      <stop offset="0.66" stop-color="#6E6E6E"/>
      <stop offset="0.86" stop-color="#4A4A4A"/>
      <stop offset="1" stop-color="#2E2E2E"/>
    </linearGradient>
    <radialGradient id="pbm-plate" cx="0.31" cy="0.22" r="0.9">
      <stop offset="0" stop-color="#F4F4F4"/>
      <stop offset="0.14" stop-color="#CACACA"/>
      <stop offset="0.36" stop-color="#969696"/>
      <stop offset="0.6" stop-color="#666666"/>
      <stop offset="0.82" stop-color="#414141"/>
      <stop offset="1" stop-color="#2C2C2C"/>
    </radialGradient>
    <radialGradient id="pbm-ball" cx="0.32" cy="0.25" r="0.84">
      <stop offset="0" stop-color="#FFFFFF"/>
      <stop offset="0.1" stop-color="#EAEAEA"/>
      <stop offset="0.32" stop-color="#B0B0B0"/>
      <stop offset="0.56" stop-color="#767676"/>
      <stop offset="0.78" stop-color="#4A4A4A"/>
      <stop offset="0.92" stop-color="#2E2E2E"/>
      <stop offset="1" stop-color="#5A5A5A"/>
    </radialGradient>
    <radialGradient id="pbm-socket" cx="0.4" cy="0.28" r="0.8">
      <stop offset="0" stop-color="#5A5A5A"/>
      <stop offset="0.4" stop-color="#333333"/>
      <stop offset="1" stop-color="#191919"/>
    </radialGradient>
  </defs>
  <g id="pbm-core">
    <path d="M32 208V239A168 90 0 0 0 368 239V208A168 90 0 0 1 32 208Z" fill="url(#pbm-wall)"/>
    <path d="M32 239A168 90 0 0 0 368 239" fill="none" stroke="#FFFFFF" stroke-opacity="0.16" stroke-width="2"/>
    <ellipse cx="200" cy="208" rx="168" ry="90" fill="url(#pbm-plate)"/>
    <path d="M253.8 208L365.5 208M253.4 211.2L364.4 217.9M252.4 214.4L361.3 227.7M250.7 217.5L356.2 237.3M248.4 220.5L349.1 246.5M245.5 223.3L340.1 255.2M242 226L329.4 263.3M238 228.4L317 270.7M233.5 230.5L303.2 277.3M228.6 232.4L288 283.1M223.3 233.9L271.8 287.9M217.8 235.2L254.7 291.7M212 236.1L236.8 294.4M206 236.6L218.5 296.1M200 236.8L200 296.6M194 236.6L181.5 296.1M188 236.1L163.2 294.4M182.2 235.2L145.3 291.7M176.7 233.9L128.2 287.9M171.4 232.4L112 283.1M166.5 230.5L96.8 277.3M162 228.4L83 270.7M158 226L70.6 263.3M154.5 223.3L59.9 255.2M151.6 220.5L50.9 246.5M149.3 217.5L43.8 237.3M147.6 214.4L38.7 227.7M146.6 211.2L35.6 217.9M146.2 208L34.5 208M146.6 204.8L35.6 198.1M147.6 201.6L38.7 188.3M149.3 198.5L43.8 178.7M151.6 195.5L50.9 169.5M154.5 192.7L59.9 160.8M158 190L70.6 152.7M162 187.6L83 145.3M166.5 185.5L96.8 138.7M171.4 183.6L112 132.9M176.7 182.1L128.2 128.1M182.2 180.8L145.3 124.3M188 179.9L163.2 121.6M194 179.4L181.5 119.9M200 179.2L200 119.3M206 179.4L218.5 119.9M212 179.9L236.8 121.6M217.8 180.8L254.7 124.3M223.3 182.1L271.8 128.1M228.6 183.6L288 132.9M233.5 185.5L303.2 138.7M238 187.6L317 145.3M242 190L329.4 152.7M245.5 192.7L340.1 160.8M248.4 195.5L349.1 169.5M250.7 198.5L356.2 178.7M252.4 201.6L361.3 188.3M253.4 204.8L364.4 198.1" stroke="#FFFFFF" stroke-opacity="0.055" stroke-width="1.6" fill="none"/>
    <ellipse cx="200" cy="208" rx="156.2" ry="83.7" fill="none" stroke="#000000" stroke-opacity="0.45" stroke-width="2.4"/>
    <ellipse cx="200" cy="210.6" rx="156.2" ry="83.7" fill="none" stroke="#FFFFFF" stroke-opacity="0.22" stroke-width="1.6"/>
    <ellipse cx="200" cy="208" rx="132.7" ry="71.1" fill="none" stroke="#000000" stroke-opacity="0.4" stroke-width="2.4"/>
    <ellipse cx="200" cy="210.6" rx="132.7" ry="71.1" fill="none" stroke="#FFFFFF" stroke-opacity="0.2" stroke-width="1.6"/>
    <ellipse cx="200" cy="208" rx="110.9" ry="59.4" fill="none" stroke="#000000" stroke-opacity="0.36" stroke-width="2.4"/>
    <ellipse cx="200" cy="210.6" rx="110.9" ry="59.4" fill="none" stroke="#FFFFFF" stroke-opacity="0.17" stroke-width="1.6"/>
    <ellipse cx="200" cy="208" rx="90.7" ry="48.6" fill="none" stroke="#000000" stroke-opacity="0.32" stroke-width="2.4"/>
    <ellipse cx="200" cy="210.6" rx="90.7" ry="48.6" fill="none" stroke="#FFFFFF" stroke-opacity="0.15" stroke-width="1.6"/>
    <ellipse cx="200" cy="208" rx="168" ry="90" fill="none" stroke="#FFFFFF" stroke-opacity="0.32" stroke-width="1.8"/>
    <ellipse cx="200" cy="208" rx="84" ry="47" fill="url(#pbm-socket)"/>
    <path d="M116 208A84 47 0 0 1 284 208" fill="none" stroke="#000000" stroke-opacity="0.72" stroke-width="3.2"/>
    <path d="M121 214A84 47 0 0 0 279 214" fill="none" stroke="#FFFFFF" stroke-opacity="0.28" stroke-width="2.4"/>
    <ellipse cx="200" cy="209" rx="70" ry="39" fill="#242424"/>
    <ellipse cx="200" cy="209" rx="70" ry="39" fill="none" stroke="#FFFFFF" stroke-opacity="0.14" stroke-width="1.4"/>
    <circle cx="200" cy="207" r="56" fill="url(#pbm-ball)"/>
    <ellipse cx="179" cy="180" rx="14" ry="9.4" fill="#FFFFFF" opacity="0.72" transform="rotate(-28 179 180)"/>
    <path d="M156 241A56 56 0 0 0 238 246" fill="none" stroke="#FFFFFF" stroke-opacity="0.34" stroke-width="3"/>
    <ellipse cx="200" cy="200" rx="19" ry="14" fill="#0F0F0F"/>
    <path d="M181 200A19 14 0 0 1 219 200" fill="none" stroke="#FFFFFF" stroke-opacity="0.3" stroke-width="1.8"/>
    <ellipse cx="200" cy="141.4" rx="19" ry="6.5" fill="#0C0C0C" opacity="0.6"/>
    <ellipse cx="200" cy="140.4" rx="18" ry="6.1" fill="url(#pbm-collar)"/>
    <rect x="188" y="89.4" width="24" height="52" fill="url(#pbm-chrome)"/>
    <rect x="191.8" y="89.4" width="3.1" height="52" fill="url(#pbm-spec)" opacity="0.7"/>
    <rect x="210.6" y="89.4" width="1.4" height="52" fill="#FFFFFF" opacity="0.22"/>
    <path d="M188 97.4h24M188 103.4h24M188 109.4h24M188 115.4h24M188 121.4h24" stroke="#000000" stroke-opacity="0.28" stroke-width="1.4" fill="none"/>
    <rect x="183.1" y="91.4" width="33.8" height="16" rx="2" fill="url(#pbm-collar)"/>
    <path d="M218 91.4L209 97L191 97L182 91.4L191 85.8L209 85.8Z" fill="url(#pbm-face)"/>
    <path d="M218 91.4L209 97L191 97L182 91.4L191 85.8L209 85.8Z" fill="none" stroke="#FFFFFF" stroke-opacity="0.28" stroke-width="1.2"/>
    <ellipse cx="307.7" cy="241.3" rx="19" ry="6.5" fill="#0C0C0C" opacity="0.6"/>
    <ellipse cx="307.7" cy="240.3" rx="18" ry="6.1" fill="url(#pbm-collar)"/>
    <rect x="295.7" y="189.3" width="24" height="52" fill="url(#pbm-chrome)"/>
    <rect x="299.5" y="189.3" width="3.1" height="52" fill="url(#pbm-spec)" opacity="0.7"/>
    <rect x="318.3" y="189.3" width="1.4" height="52" fill="#FFFFFF" opacity="0.22"/>
    <path d="M295.7 197.3h24M295.7 203.3h24M295.7 209.3h24M295.7 215.3h24M295.7 221.3h24" stroke="#000000" stroke-opacity="0.28" stroke-width="1.4" fill="none"/>
    <rect x="290.7" y="191.3" width="33.8" height="16" rx="2" fill="url(#pbm-collar)"/>
    <path d="M325.7 191.3L316.7 196.9L298.7 196.9L289.7 191.3L298.7 185.7L316.7 185.7Z" fill="url(#pbm-face)"/>
    <path d="M325.7 191.3L316.7 196.9L298.7 196.9L289.7 191.3L298.7 185.7L316.7 185.7Z" fill="none" stroke="#FFFFFF" stroke-opacity="0.28" stroke-width="1.2"/>
    <ellipse cx="92.3" cy="241.3" rx="19" ry="6.5" fill="#0C0C0C" opacity="0.6"/>
    <ellipse cx="92.3" cy="240.3" rx="18" ry="6.1" fill="url(#pbm-collar)"/>
    <rect x="80.3" y="189.3" width="24" height="52" fill="url(#pbm-chrome)"/>
    <rect x="84.2" y="189.3" width="3.1" height="52" fill="url(#pbm-spec)" opacity="0.7"/>
    <rect x="102.9" y="189.3" width="1.4" height="52" fill="#FFFFFF" opacity="0.22"/>
    <path d="M80.3 197.3h24M80.3 203.3h24M80.3 209.3h24M80.3 215.3h24M80.3 221.3h24" stroke="#000000" stroke-opacity="0.28" stroke-width="1.4" fill="none"/>
    <rect x="75.4" y="191.3" width="33.8" height="16" rx="2" fill="url(#pbm-collar)"/>
    <path d="M110.3 191.3L101.3 196.9L83.3 196.9L74.3 191.3L83.3 185.7L101.3 185.7Z" fill="url(#pbm-face)"/>
    <path d="M110.3 191.3L101.3 196.9L83.3 196.9L74.3 191.3L83.3 185.7L101.3 185.7Z" fill="none" stroke="#FFFFFF" stroke-opacity="0.28" stroke-width="1.2"/>
  </g>
</svg>
